<?xml version="1.0" encoding="UTF-8"?>
<svg id="Camada_2" data-name="Camada 2" xmlns="http://www.w3.org/2000/svg" viewBox="0 0 836.43 199.53">
  <defs>
    <style>
      .cls-1 {
        fill: #3586c7;
      }

      .cls-2 {
        fill: #004a8f;
      }
    </style>
  </defs>
  <g id="Camada_1-2" data-name="Camada 1">
    <g>
      <g>
        <path class="cls-1" d="M94.23,103v96.32l-33.23-.32-.2-145.19c0-4.77-3.86-8.63-8.62-8.64l-39.41-.08c-7.05,0-12.76-5.71-12.76-12.76V0h135.26c13.73,0,27.38,2.07,40.49,6.13l85.02,39.05h-108.73c-31.93,0-57.81,25.88-57.81,57.81Z"/>
        <path class="cls-2" d="M181.76,96.36c-7.04,0-12.91.59-17.6,1.76-4.7,1.18-8.44,3.16-11.24,5.96-2.8,2.8-4.79,6.63-5.96,11.51-1.18,4.87-1.76,11.01-1.76,18.41v65.26h-32.49v-65.26c0-23.46,5.51-41.02,16.52-52.67,11.01-11.64,28.52-17.46,52.53-17.46v32.49Z"/>
        <path class="cls-2" d="M192.59,63.87h32.49v135.39h-32.49V63.87Z"/>
        <path class="cls-2" d="M235.91,63.87h32.49v12.18c4.15-3.61,9.43-6.59,15.84-8.93,6.41-2.34,13.31-3.52,20.71-3.52,10.29,0,19.45,1.62,27.48,4.87,8.03,3.25,14.89,7.85,20.58,13.81,5.69,5.96,10.02,13.09,13,21.39,2.98,8.3,4.47,17.6,4.47,27.89v67.69h-32.49v-67.69c0-11.01-2.57-19.67-7.72-25.99-5.14-6.32-13.58-9.48-25.32-9.48s-20.76,3.16-27.08,9.48c-6.32,6.32-9.48,14.99-9.48,25.99v67.69h-32.49V63.87Z"/>
        <path class="cls-2" d="M449.28,63.6c10.29,0,19.58,1.62,27.89,4.87,8.3,3.25,15.43,7.85,21.39,13.81,5.96,5.96,10.56,13.09,13.81,21.39,3.25,8.3,4.87,17.6,4.87,27.89s-1.62,19.59-4.87,27.89c-3.25,8.31-7.85,15.43-13.81,21.39-5.96,5.96-13.09,10.56-21.39,13.81-8.31,3.25-17.6,4.87-27.89,4.87s-19.59-1.62-27.89-4.87c-8.31-3.25-15.43-7.85-21.39-13.81-5.96-5.96-10.56-13.09-13.81-21.39-3.25-8.3-4.87-17.6-4.87-27.89s1.62-19.58,4.87-27.89c3.25-8.3,7.85-15.43,13.81-21.39,5.96-5.96,13.09-10.56,21.39-13.81,8.3-3.25,17.6-4.87,27.89-4.87ZM449.28,167.03c11.19,0,19.9-3.07,26.13-9.21,6.23-6.14,9.34-14.89,9.34-26.27s-2.98-19.67-8.94-25.99c-5.96-6.32-14.81-9.48-26.54-9.48s-20.58,3.16-26.54,9.48c-5.96,6.32-8.94,14.99-8.94,25.99s3.11,20.13,9.34,26.27c6.23,6.14,14.93,9.21,26.13,9.21Z"/>
        <path class="cls-2" d="M542.16,63.87l41.7,94.77,41.43-94.77h35.74l-59.57,135.39h-35.47l-59.57-135.39h35.74Z"/>
        <path class="cls-2" d="M719.79,199.26c-15.16,0-27.75-3.34-37.77-10.02-10.02-6.68-17.56-15.03-22.61-25.05-5.05-10.02-7.58-20.89-7.58-32.63s2.53-22.61,7.58-32.63c5.05-10.02,12.59-18.37,22.61-25.05,10.02-6.68,22.61-10.02,37.77-10.02,11.37,0,21.3,1.99,29.79,5.96,8.48,3.97,15.57,9.25,21.26,15.84,5.69,6.59,9.92,14.17,12.73,22.75,2.8,8.57,4.2,17.38,4.2,26.4v64.45h-32.49v-14.08c-2.53,3.07-6.86,6.19-13,9.34-6.14,3.16-13.63,4.74-22.47,4.74ZM719.79,96.36c-7.76,0-14.31,1.76-19.63,5.28-5.33,3.52-9.3,7.85-11.91,13-2.62,5.15-3.93,10.79-3.93,16.92s1.31,11.78,3.93,16.92c2.62,5.15,6.54,9.48,11.78,13,5.23,3.52,11.82,5.28,19.77,5.28s14.26-1.76,19.5-5.28c5.23-3.52,9.11-7.85,11.64-13,2.53-5.14,3.79-10.78,3.79-16.92s-1.31-11.78-3.93-16.92c-2.62-5.14-6.5-9.48-11.64-13-5.15-3.52-11.6-5.28-19.36-5.28Z"/>
      </g>
      <circle class="cls-1" cx="814.24" cy="176.01" r="22.19"/>
    </g>
  </g>
</svg>